<?xml version="1.0" encoding="utf-8"?>
<!-- Generator: Adobe Illustrator 23.0.1, SVG Export Plug-In . SVG Version: 6.00 Build 0)  -->
<svg version="1.1" id="Layer_1" xmlns="http://www.w3.org/2000/svg" xmlns:xlink="http://www.w3.org/1999/xlink" x="0px" y="0px"
	 viewBox="0 0 1920 1080" style="enable-background:new 0 0 1920 1080;" xml:space="preserve">
<style type="text/css">
	.st0{opacity:0.6;}
	.st1{fill:url(#SVGID_1_);}
	.st2{fill:url(#SVGID_2_);}
	.st3{fill:url(#SVGID_3_);}
	.st4{fill:url(#SVGID_4_);}
	.st5{fill:url(#SVGID_5_);}
	.st6{fill:url(#SVGID_6_);}
	.st7{fill:url(#SVGID_7_);}
	.st8{fill:#70C06B;}
	.st9{fill:#3D9F47;}
	.st10{fill:url(#SVGID_8_);}
	.st11{fill:url(#SVGID_9_);}
	.st12{fill:url(#SVGID_10_);}
</style>
<g>
	<g>
		<g class="st0">
			
				<linearGradient id="SVGID_1_" gradientUnits="userSpaceOnUse" x1="651.1372" y1="126.6805" x2="659.4218" y2="134.9651" gradientTransform="matrix(55.098 29.7797 -14.6447 27.8784 -33458.5039 -23028.4883)">
				<stop  offset="0" style="stop-color:#F3F3F3"/>
				<stop  offset="1" style="stop-color:#D1D1D1"/>
			</linearGradient>
			<polygon class="st1" points="178.11,0 178.11,0 338.45,326.6 1164.98,0 509.19,0 			"/>
			
				<linearGradient id="SVGID_2_" gradientUnits="userSpaceOnUse" x1="644.405" y1="126.824" x2="653.5694" y2="135.9883" gradientTransform="matrix(63.8438 34.5066 -26.8486 51.1105 -37820.5039 -28935.6445)">
				<stop  offset="0" style="stop-color:#D2D2D2"/>
				<stop  offset="1" style="stop-color:#B9B9B9"/>
			</linearGradient>
			<polygon class="st2" points="1,414.33 338.45,326.6 178.11,0 0,0 			"/>
		</g>
		<g>
			
				<linearGradient id="SVGID_3_" gradientUnits="userSpaceOnUse" x1="620.3182" y1="131.3525" x2="635.4343" y2="146.4686" gradientTransform="matrix(-15.719 29.9234 26.2372 14.1808 6464.9961 -20767.7168)">
				<stop  offset="0" style="stop-color:#F3F3F3"/>
				<stop  offset="1" style="stop-color:#D1D1D1"/>
			</linearGradient>
			<polygon class="st3" points="1,49.1 1,189.51 394.17,211.19 528.87,0 			"/>
			
				<linearGradient id="SVGID_4_" gradientUnits="userSpaceOnUse" x1="630.8484" y1="136.4922" x2="654.2396" y2="159.8833" gradientTransform="matrix(-22.1914 42.2447 20.1152 10.872 11474.4707 -28523.1172)">
				<stop  offset="0" style="stop-color:#D2D2D2"/>
				<stop  offset="1" style="stop-color:#B9B9B9"/>
			</linearGradient>
			<polygon class="st4" points="1,189.51 1,405.21 394.17,211.19 			"/>
			
				<linearGradient id="SVGID_5_" gradientUnits="userSpaceOnUse" x1="632.5308" y1="140.6824" x2="647.9231" y2="156.0746" gradientTransform="matrix(-17.5681 33.4438 21.8643 11.8174 8200.9434 -22789.2891)">
				<stop  offset="0" style="stop-color:#F3F3F3"/>
				<stop  offset="1" style="stop-color:#D1D1D1"/>
			</linearGradient>
			<polygon class="st5" points="1,405.21 1,540.8 394.17,211.19 			"/>
			
				<linearGradient id="SVGID_6_" gradientUnits="userSpaceOnUse" x1="633.104" y1="122.2882" x2="652.8697" y2="142.0539" gradientTransform="matrix(-31.4378 59.8468 34.9829 18.9078 15858.4619 -41213.2656)">
				<stop  offset="0" style="stop-color:#FEFEFE"/>
				<stop  offset="1" style="stop-color:#D3D3D3"/>
			</linearGradient>
			<polygon class="st6" points="0,0 0,219.1 571.44,96.84 547.42,0 			"/>
			
				<linearGradient id="SVGID_7_" gradientUnits="userSpaceOnUse" x1="626.7957" y1="126.2305" x2="643.6167" y2="143.0515" gradientTransform="matrix(-29.1262 55.4462 35.8574 19.3805 14231.2588 -38369.5312)">
				<stop  offset="0" style="stop-color:#A7A7A7"/>
				<stop  offset="1" style="stop-color:#C7C7C7"/>
			</linearGradient>
			<polygon class="st7" points="547.42,0 571.44,96.84 665.78,0 			"/>
		</g>
	</g>
	<g>
		<g>
			<polygon class="st8" points="0,190.39 0,241 281.21,257.89 407.14,142.77 			"/>
			<polygon class="st9" points="0,241 0,391.1 281.21,257.89 			"/>
			
				<linearGradient id="SVGID_8_" gradientUnits="userSpaceOnUse" x1="634.8124" y1="143.8228" x2="647.2963" y2="156.3068" gradientTransform="matrix(-17.8703 33.5359 23.2959 12.4137 8101.6543 -22978.4688)">
				<stop  offset="0" style="stop-color:#70C06C"/>
				<stop  offset="1" style="stop-color:#3C9F47"/>
			</linearGradient>
			<polygon class="st10" points="0,391.1 0,488.76 281.21,257.89 			"/>
			
				<linearGradient id="SVGID_9_" gradientUnits="userSpaceOnUse" x1="630.2731" y1="152.4335" x2="646.5524" y2="168.7129" gradientTransform="matrix(-29.6271 55.5988 27.9551 14.8965 15411.5947 -37975.9648)">
				<stop  offset="0" style="stop-color:#70C06C"/>
				<stop  offset="1" style="stop-color:#3C9F47"/>
			</linearGradient>
			<polygon class="st11" points="528.87,0 407.14,142.77 1557.48,0 1334.35,0 			"/>
			
				<linearGradient id="SVGID_10_" gradientUnits="userSpaceOnUse" x1="637.6694" y1="126.6862" x2="652.3948" y2="141.4117" gradientTransform="matrix(-31.9785 60.0115 37.2735 19.862 15815.0586 -41494.8242)">
				<stop  offset="0" style="stop-color:#70C06C"/>
				<stop  offset="1" style="stop-color:#3C9F47"/>
			</linearGradient>
			<polygon class="st12" points="0,0 0,190.39 407.14,142.77 392.88,0 			"/>
			<polygon class="st9" points="392.88,0 407.14,142.77 528.87,0 			"/>
		</g>
		<g>
			<polygon class="st9" points="0,0 0,74.7 136.97,0 			"/>
		</g>
	</g>
</g>
</svg>
